<?xml version="1.0" encoding="utf-8"?>
<?xml-stylesheet type="text/xsl" href="rss1.xsl"?>
<rss version="2.0" xmlns:atom="http://www.w3.org/2005/Atom" xmlns:content="http://purl.org/rss/1.0/modules/content/" xmlns:dc="http://purl.org/dc/elements/1.1/" xmlns:media="http://search.yahoo.com/mrss/">
<channel>
 <title>Getty</title>
 <link>http://www.gettyimg.com/</link>
 <atom:link href="http://www.gettyimg.com/" rel="self" type="application/rss+xml" />

 
                <item>
                <title><![CDATA[【HD Live Performances】FEED - Nick Jonas, Demi Lovato - America the Beautiful - Boston Pops Fireworks Spectacular 2016 1080i HDTV Backhaul FLAC5.1 H.264-TrollHD]]></title>
                <link><![CDATA[https://sharemania.us/threads/nick-jonas-demi-lovato-america-the-beautiful-boston-pops-fireworks-spectacular-2016-1080i-hdtv-backhaul-flac5-1-h-264-trollhd.225469/]]></link>
                <description><![CDATA[<article>
<blockquote class="messageText SelectQuoteContainer ugc baseHtml">
<div style="padding-left: 30px"><div style="padding-left: 30px"><div style="padding-left: 30px"><div style="padding-left: 30px"><div style="padding-left: 30px"><div style="padding-left: 30px"><b><span style="color: rgb(255, 0, 0)">Nick Jonas, Demi Lovato - America the Beautiful - </span></b>​</div></div></div></div><b><span style="color: rgb(255, 0, 0)">Boston Pops Fireworks Spectacular 2016 1080i HDTV Backhaul FLAC5.1 H.264-TrollHD</span></b>​</div></div><br>
<img src="https://images2.imgbox.com/1d/75/1qVmPujx_o.png" class="bbCodeImage LbImage" alt="[​IMG]" data-url="https://images2.imgbox.com/1d/75/1qVmPujx_o.png" style=""><br>
<br>
<div class="bbCodeBlock bbCodeCode">
<div class="type">Code:</div>
<pre>General
Unique ID                      : 90380601183500797987768150789435814989 (0x43FEABADD317168E3EFAF1CFBCEDF44D)
Format                         : Matroska
Format version                 : Version 4
File size                      : 1.05 GiB
Duration                       : 5 min 51 s
Overall bit rate mode          : Variable
Overall bit rate               : 25.6 Mb/s
Encoded date                   : UTC 2023-07-30 20:04:29
Writing application            : mkvmerge v30.0.0 ('Interstellar') 64-bit
Writing library                : libebml v1.3.6 + libmatroska v1.4.9

Video
ID                             : 1
Format                         : AVC
Format/Info                    : Advanced Video Codec
Format profile                 : High 4:2:2@L4.1
Format settings                : CABAC / 2 Ref Frames
Format settings, CABAC         : Yes
Format settings, Reference fra : 2 frames
Format settings, GOP           : M=1, N=36
Codec ID                       : V_MPEG4/ISO/AVC
Duration                       : 5 min 51 s
Bit rate mode                  : Constant
Bit rate                       : 22.2 Mb/s
Nominal bit rate               : 25.8 Mb/s
Width                          : 1 920 pixels
Height                         : 1 080 pixels
Display aspect ratio           : 16:9
Frame rate mode                : Variable
Frame rate                     : 59.940 (60000/1001) FPS
Original frame rate            : 29.970 (30000/1001) FPS
Color space                    : YUV
Chroma subsampling             : 4:2:2
Bit depth                      : 8 bits
Scan type                      : Interlaced
Scan type, store method        : Separated fields
Scan order                     : Top Field First
Bits/(Pixel*Frame)             : 0.178
Stream size                    : 928 MiB (86%)
Default                        : Yes
Forced                         : No

Audio
ID                             : 2
Format                         : FLAC
Format/Info                    : Free Lossless Audio Codec
Codec ID                       : A_FLAC
Duration                       : 5 min 51 s
Bit rate mode                  : Variable
Bit rate                       : 3 458 kb/s
Channel(s)                     : 6 channels
Channel layout                 : L R C LFE Ls Rs
Sampling rate                  : 48.0 kHz
Frame rate                     : 11.719 FPS (4096 SPF)
Bit depth                      : 24 bits
Compression mode               : Lossless
Delay relative to video        : 66 ms
Stream size                    : 145 MiB (13%)
Writing library                : libFLAC 1.3.0 (UTC 2013-05-26)
Language                       : English
Default                        : Yes
Forced                         : No

</pre>
</div>
<div class="bbCodeBlock bbCodeVfcHH HiddenContent">
<div class="attribution type">Hidden Content:</div>
<blockquote>You must either reply or click 'Like' to see the hidden information contained here.</blockquote>
</div><span style="color: rgb(191, 191, 191)">Cutted with:</span><br>
<b>MKVToolNix GUI<br>
<br>
<img src="styles/default/xenforo/smilies/super_man-48.png" class="mceSmilie" alt=":super:" title="Super Man    :super:"><img src="styles/default/xenforo/smilies/super_man-48.png" class="mceSmilie" alt=":super:" title="Super Man    :super:"><img src="styles/default/xenforo/smilies/super_man-48.png" class="mceSmilie" alt=":super:" title="Super Man    :super:"></b>
<div class="messageTextEndMarker">&nbsp;</div>
</blockquote>
</article>]]></description>
                <author><![CDATA[Dream66]]></author>
                </item>

                </channel></rss>